<svg width="276" height="42" viewBox="0 0 276 42" fill="none" xmlns="http://www.w3.org/2000/svg">
<path fill-rule="evenodd" clip-rule="evenodd" d="M15.6991 11.4636C15.6793 14.1319 13.4959 16.3059 10.8324 16.3059C8.15398 16.3059 5.96567 14.1316 5.96567 11.4139C5.96567 8.74569 8.12923 6.57167 10.8324 6.57167C13.5355 6.57167 15.6991 8.74569 15.6991 11.4139C15.7239 8.74569 17.9022 6.62137 20.5707 6.62137C23.155 6.62137 25.2443 8.59765 25.4275 11.1176C25.5859 8.54824 27.7049 6.57167 30.2843 6.57167C32.9874 6.57167 35.1558 8.74569 35.1558 11.4139C35.1558 14.1316 32.9627 16.3059 30.2843 16.3059C27.7197 16.3059 25.6057 14.3293 25.4275 11.7599C25.269 14.3293 23.1451 16.3059 20.5707 16.3059C17.8873 16.3059 15.6991 14.1813 15.6991 11.4636ZM15.6991 30.8331C15.6991 33.5508 13.5108 35.6754 10.8324 35.6754C8.15398 35.6754 5.98547 33.5014 5.96567 30.8331C5.96567 28.2143 7.99058 26.1386 10.565 25.9904C8.06485 25.7927 6.07953 23.6681 6.07953 21.1481C6.07953 18.4799 8.26784 16.3059 10.9462 16.3059C13.6247 16.3059 15.793 18.4799 15.8178 21.1481C15.8178 23.767 13.7732 25.8422 11.2136 25.9904C13.7237 26.188 15.6793 28.2634 15.6991 30.7834C15.6991 28.1152 17.8873 25.9412 20.5707 25.9412C23.1699 25.9412 25.274 27.9672 25.4275 30.4872C25.6057 27.9672 27.7197 25.9904 30.2843 25.9904C32.9874 25.9904 35.1558 28.1649 35.1558 30.8331C35.1558 33.5508 32.9627 35.6754 30.2843 35.6754C27.6999 35.6754 25.5958 33.6494 25.4275 31.1294C25.2542 33.6494 23.1401 35.6754 20.5707 35.6754C22.244 35.6754 23.6055 37.0093 23.6055 38.6893C23.6055 40.3693 22.2442 41.7037 20.5658 41.7037C18.8924 41.7037 17.5308 40.3693 17.5308 38.6893C17.5308 37.0093 18.8924 35.6754 20.5658 35.6754C17.9023 35.6754 15.7239 33.5014 15.6991 30.8331ZM20.5658 6.52245C18.8924 6.52245 17.5308 5.18804 17.5308 3.50804C17.5308 1.82804 18.8924 0.494118 20.5658 0.494118C22.2442 0.494118 23.6055 1.82804 23.6055 3.50804C23.6055 5.18804 22.2442 6.52245 20.5658 6.52245ZM3.03989 24.1625C1.36155 24.1625 0 22.8281 0 21.1481C0 19.4681 1.36155 18.1342 3.03989 18.1342C4.71327 18.1342 6.07469 19.4681 6.07469 21.1481C6.07469 22.8281 4.71327 24.1625 3.03989 24.1625ZM38.1909 24.1625C36.4927 24.1625 35.1558 22.8281 35.1558 21.1481C35.1558 19.4681 36.5175 18.1342 38.1909 18.1342C39.8643 18.1342 41.2257 19.4681 41.2257 21.1481C41.2257 22.8281 39.8643 24.1625 38.1909 24.1625ZM97.8633 15.0214H97.8681V11.2166H106.037C111.552 11.2166 115.998 15.6634 115.998 21.1481C115.998 26.6328 111.567 31.0802 106.062 31.0802H97.8681L97.8633 29.054V15.0214ZM101.883 15.2187V27.0776H106.037C106.047 27.0776 106.052 27.0776 106.062 27.0776C109.31 27.0776 111.978 24.4093 111.978 21.1481C111.978 17.887 109.334 15.2187 106.062 15.2187H101.883ZM119.736 15.2187H119.731V11.2166H134.494V15.2187H123.756V18.9743H132.618V22.9765H123.756V27.0776H134.494V31.0802H119.731V27.0776H119.736V22.9765H119.731V18.9743H119.736V15.2187ZM66.4204 23.7176V23.7669H70.6634C69.4999 28.2139 65.4352 31.5743 60.5685 31.5743C54.8058 31.5743 50.1372 26.8799 50.1372 21.1481C50.1372 15.367 54.8058 10.7224 60.5685 10.7224C65.4352 10.7224 69.4999 14.0329 70.6634 18.5294H66.4204C65.4153 16.3059 63.1826 14.7246 60.5685 14.7246C57.0386 14.7246 54.1573 17.5907 54.1573 21.0989C54.1573 24.6566 57.0386 27.5224 60.5685 27.5224C63.1826 27.5224 65.4153 25.9412 66.4204 23.7176ZM83.7038 10.7224C89.4666 10.7224 94.1354 15.367 94.1354 21.1481C94.1354 26.8799 89.4666 31.5743 83.7038 31.5743C77.941 31.5743 73.2725 26.8799 73.2725 21.1481C73.2725 15.367 77.941 10.7224 83.7038 10.7224ZM83.7038 14.7246C80.1739 14.7246 77.2926 17.6399 77.2926 21.1481C77.2926 24.6564 80.1739 27.5224 83.7038 27.5224C87.2338 27.5224 90.1153 24.6564 90.1153 21.1481C90.1153 17.6399 87.2338 14.7246 83.7038 14.7246Z" fill="white"/>
<path d="M154.293 0H156.768V42H154.293V0Z" fill="#D9D9D9"/>
<path d="M175.582 31.1294H170.248V13.8802H175.818C177.494 13.8802 178.929 14.2255 180.122 14.9162C181.314 15.6012 182.229 16.5866 182.864 17.8725C183.5 19.1527 183.818 20.6856 183.818 22.4711C183.818 24.2679 183.497 25.8148 182.856 27.1119C182.215 28.4033 181.281 29.3972 180.054 30.0934C178.828 30.7841 177.337 31.1294 175.582 31.1294ZM172.341 29.2765H175.447C176.876 29.2765 178.06 29.0013 178.999 28.4511C179.939 27.9008 180.639 27.1175 181.101 26.1012C181.562 25.0849 181.793 23.8749 181.793 22.4711C181.793 21.0786 181.565 19.8798 181.109 18.8747C180.653 17.864 179.973 17.0892 179.067 16.5501C178.161 16.0055 177.033 15.7332 175.683 15.7332H172.341V29.2765Z" fill="#D9D9D9"/>
<path d="M191.78 31.3989C190.531 31.3989 189.454 31.1238 188.548 30.5735C187.648 30.0176 186.953 29.2428 186.464 28.2489C185.98 27.2495 185.738 26.0872 185.738 24.762C185.738 23.4369 185.98 22.269 186.464 21.2583C186.953 20.242 187.634 19.4503 188.506 18.8832C189.384 18.3104 190.408 18.0241 191.578 18.0241C192.253 18.0241 192.92 18.1364 193.578 18.361C194.236 18.5856 194.835 18.9505 195.375 19.4559C195.915 19.9556 196.346 20.6182 196.666 21.4436C196.987 22.269 197.147 23.2853 197.147 24.4925V25.3348H187.156V23.6166H195.122C195.122 22.8866 194.976 22.2353 194.683 21.6626C194.396 21.0898 193.986 20.6378 193.451 20.3066C192.922 19.9753 192.298 19.8096 191.578 19.8096C190.785 19.8096 190.098 20.0062 189.519 20.3992C188.945 20.7866 188.503 21.292 188.194 21.9152C187.884 22.5385 187.73 23.2067 187.73 23.9198V25.0652C187.73 26.0422 187.898 26.8705 188.236 27.5499C188.579 28.2237 189.055 28.7374 189.662 29.0912C190.27 29.4393 190.976 29.6134 191.78 29.6134C192.304 29.6134 192.776 29.5404 193.198 29.3944C193.626 29.2428 193.994 29.0182 194.304 28.7206C194.613 28.4174 194.852 28.0412 195.021 27.592L196.945 28.131C196.742 28.7824 196.402 29.3551 195.924 29.8492C195.446 30.3377 194.855 30.7195 194.152 30.9947C193.448 31.2642 192.658 31.3989 191.78 31.3989Z" fill="#D9D9D9"/>
<path d="M209.669 18.1925L204.876 31.1294H202.85L198.057 18.1925H200.217L203.795 28.5016H203.93L207.509 18.1925H209.669Z" fill="#D9D9D9"/>
<path d="M216.555 31.3989C215.306 31.3989 214.229 31.1238 213.323 30.5735C212.423 30.0176 211.728 29.2428 211.239 28.2489C210.755 27.2495 210.513 26.0872 210.513 24.762C210.513 23.4369 210.755 22.269 211.239 21.2583C211.728 20.242 212.409 19.4503 213.281 18.8832C214.159 18.3104 215.183 18.0241 216.353 18.0241C217.028 18.0241 217.695 18.1364 218.353 18.361C219.011 18.5856 219.61 18.9505 220.15 19.4559C220.69 19.9556 221.121 20.6182 221.441 21.4436C221.762 22.269 221.922 23.2853 221.922 24.4925V25.3348H211.931V23.6166H219.897C219.897 22.8866 219.751 22.2353 219.458 21.6626C219.171 21.0898 218.761 20.6378 218.226 20.3066C217.697 19.9753 217.073 19.8096 216.353 19.8096C215.559 19.8096 214.873 20.0062 214.294 20.3992C213.72 20.7866 213.278 21.292 212.969 21.9152C212.659 22.5385 212.505 23.2067 212.505 23.9198V25.0652C212.505 26.0422 212.673 26.8705 213.011 27.5499C213.354 28.2237 213.829 28.7374 214.437 29.0912C215.045 29.4393 215.751 29.6134 216.555 29.6134C217.078 29.6134 217.551 29.5404 217.973 29.3944C218.401 29.2428 218.769 29.0182 219.079 28.7206C219.388 28.4174 219.627 28.0412 219.796 27.592L221.72 28.131C221.517 28.7824 221.177 29.3551 220.699 29.8492C220.221 30.3377 219.63 30.7195 218.927 30.9947C218.223 31.2642 217.433 31.3989 216.555 31.3989Z" fill="#D9D9D9"/>
<path d="M226.231 13.8802V31.1294H224.239V13.8802H226.231Z" fill="#D9D9D9"/>
<path d="M234.431 31.3989C233.261 31.3989 232.234 31.121 231.351 30.5651C230.474 30.0092 229.787 29.2316 229.292 28.2321C228.803 27.2326 228.558 26.0647 228.558 24.7283C228.558 23.3807 228.803 22.2044 229.292 21.1993C229.787 20.1943 230.474 19.4138 231.351 18.8579C232.234 18.302 233.261 18.0241 234.431 18.0241C235.602 18.0241 236.626 18.302 237.503 18.8579C238.386 19.4138 239.073 20.1943 239.562 21.1993C240.057 22.2044 240.305 23.3807 240.305 24.7283C240.305 26.0647 240.057 27.2326 239.562 28.2321C239.073 29.2316 238.386 30.0092 237.503 30.5651C236.626 31.121 235.602 31.3989 234.431 31.3989ZM234.431 29.6134C235.32 29.6134 236.052 29.386 236.626 28.9311C237.199 28.4763 237.624 27.8783 237.9 27.1372C238.175 26.396 238.313 25.593 238.313 24.7283C238.313 23.8636 238.175 23.0579 237.9 22.3111C237.624 21.5643 237.199 20.9607 236.626 20.5003C236.052 20.0398 235.32 19.8096 234.431 19.8096C233.542 19.8096 232.811 20.0398 232.237 20.5003C231.663 20.9607 231.239 21.5643 230.963 22.3111C230.687 23.0579 230.549 23.8636 230.549 24.7283C230.549 25.593 230.687 26.396 230.963 27.1372C231.239 27.8783 231.663 28.4763 232.237 28.9311C232.811 29.386 233.542 29.6134 234.431 29.6134Z" fill="#D9D9D9"/>
<path d="M242.632 35.9807V18.1925H244.556V20.2476H244.792C244.939 20.023 245.141 19.7366 245.4 19.3885C245.664 19.0348 246.041 18.7203 246.531 18.4452C247.026 18.1644 247.695 18.0241 248.539 18.0241C249.631 18.0241 250.593 18.2964 251.425 18.841C252.258 19.3857 252.908 20.1578 253.375 21.1572C253.842 22.1567 254.075 23.3358 254.075 24.6947C254.075 26.0647 253.842 27.2523 253.375 28.2574C252.908 29.2568 252.261 30.0317 251.434 30.582C250.607 31.1266 249.653 31.3989 248.573 31.3989C247.74 31.3989 247.074 31.2614 246.573 30.9862C246.072 30.7055 245.687 30.3882 245.417 30.0345C245.147 29.6751 244.939 29.3775 244.792 29.1417H244.624V35.9807H242.632ZM244.59 24.661C244.59 25.638 244.733 26.4999 245.02 27.2467C245.307 27.9878 245.726 28.569 246.278 28.9901C246.829 29.4056 247.504 29.6134 248.303 29.6134C249.136 29.6134 249.831 29.3944 250.387 28.9564C250.95 28.5128 251.372 27.9176 251.653 27.1709C251.94 26.4184 252.084 25.5818 252.084 24.661C252.084 23.7513 251.943 22.9315 251.662 22.2016C251.386 21.466 250.967 20.8849 250.404 20.4582C249.847 20.0258 249.147 19.8096 248.303 19.8096C247.493 19.8096 246.812 20.0146 246.261 20.4245C245.709 20.8287 245.293 21.3959 245.012 22.1258C244.731 22.8501 244.59 23.6952 244.59 24.661Z" fill="#D9D9D9"/>
<path d="M261.835 31.3989C260.586 31.3989 259.509 31.1238 258.603 30.5735C257.703 30.0176 257.008 29.2428 256.519 28.2489C256.035 27.2495 255.793 26.0872 255.793 24.762C255.793 23.4369 256.035 22.269 256.519 21.2583C257.008 20.242 257.689 19.4503 258.561 18.8832C259.438 18.3104 260.462 18.0241 261.633 18.0241C262.308 18.0241 262.974 18.1364 263.633 18.361C264.291 18.5856 264.89 18.9505 265.43 19.4559C265.97 19.9556 266.401 20.6182 266.721 21.4436C267.042 22.269 267.202 23.2853 267.202 24.4925V25.3348H257.211V23.6166H265.177C265.177 22.8866 265.031 22.2353 264.738 21.6626C264.451 21.0898 264.04 20.6378 263.506 20.3066C262.977 19.9753 262.353 19.8096 261.633 19.8096C260.839 19.8096 260.153 20.0062 259.573 20.3992C259 20.7866 258.558 21.292 258.249 21.9152C257.939 22.5385 257.784 23.2067 257.784 23.9198V25.0652C257.784 26.0422 257.953 26.8705 258.291 27.5499C258.634 28.2237 259.109 28.7374 259.717 29.0912C260.324 29.4393 261.031 29.6134 261.835 29.6134C262.358 29.6134 262.831 29.5404 263.253 29.3944C263.68 29.2428 264.049 29.0182 264.358 28.7206C264.668 28.4174 264.907 28.0412 265.076 27.592L267 28.131C266.797 28.7824 266.457 29.3551 265.979 29.8492C265.5 30.3377 264.91 30.7195 264.206 30.9947C263.503 31.2642 262.713 31.3989 261.835 31.3989Z" fill="#D9D9D9"/>
<path d="M269.519 31.1294V18.1925H271.443V20.1465H271.578C271.814 19.5064 272.242 18.987 272.861 18.5884C273.48 18.1897 274.177 17.9904 274.954 17.9904C275.1 17.9904 275.283 17.9932 275.502 17.9988C275.722 18.0044 275.887 18.0128 276 18.0241V20.0455C275.932 20.0286 275.778 20.0033 275.536 19.9697C275.3 19.9303 275.049 19.9107 274.785 19.9107C274.155 19.9107 273.592 20.0426 273.097 20.3066C272.608 20.5648 272.219 20.9242 271.932 21.3846C271.651 21.8394 271.51 22.3588 271.51 22.9428V31.1294H269.519Z" fill="#D9D9D9"/>
</svg>
