<?xml version="1.0" encoding="UTF-8"?><svg version="1.1" width="384px" height="384px" viewBox="0 0 384.0 384.0" xmlns="http://www.w3.org/2000/svg" xmlns:xlink="http://www.w3.org/1999/xlink"><defs><clipPath id="i0"><path d="M384,0 L384,384 L0,384 L0,0 L384,0 Z"></path></clipPath><clipPath id="i1"><path d="M128.25,0 L128.25,384 L0,384 L0,0 L128.25,0 Z"></path></clipPath><clipPath id="i2"><path d="M384,0 L384,128.25 L0,128.25 L0,0 L384,0 Z"></path></clipPath><clipPath id="i3"><path d="M16.2559415,0 L20.0871811,11.9324967 L32.25,11.9324967 L22.6061187,19.9950006 L26.0513411,32.25 L16.0303901,24.1874961 L6.06221036,31.9274896 L10.0182111,19.9950006 L0,11.9324967 L12.0373612,11.9324967 L16.2559415,0 Z"></path></clipPath></defs><g clip-path="url(#i0)"><g clip-path="url(#i0)"><polygon points="0,0 384,0 384,384 0,384 0,0" stroke="none" fill="#FFFFFF"></polygon></g><g transform="translate(128.25 0.0)"><g clip-path="url(#i1)"><polygon points="0,0 128.25,0 128.25,384 0,384 0,0" stroke="none" fill="#DC171C"></polygon></g></g><g transform="translate(0.0 127.5)"><g clip-path="url(#i2)"><polygon points="0,0 384,0 384,128.25 0,128.25 0,0" stroke="none" fill="#012A87"></polygon></g></g><g transform="translate(144.0 218.25)"><g clip-path="url(#i3)"><polygon points="0,0 32.25,0 32.25,32.25 0,32.25 0,0" stroke="none" fill="#FFFFFF"></polygon></g></g><g transform="translate(207.75 218.25)"><g clip-path="url(#i3)"><polygon points="0,0 32.25,0 32.25,32.25 0,32.25 0,0" stroke="none" fill="#FFFFFF"></polygon></g></g><g transform="translate(144.0 133.5)"><g clip-path="url(#i3)"><polygon points="0,0 32.25,0 32.25,32.25 0,32.25 0,0" stroke="none" fill="#FFFFFF"></polygon></g></g><g transform="translate(205.5 133.5)"><g clip-path="url(#i3)"><polygon points="0,0 32.25,0 32.25,32.25 0,32.25 0,0" stroke="none" fill="#FFFFFF"></polygon></g></g><g transform="translate(90.75 175.5)"><g clip-path="url(#i3)"><polygon points="0,0 32.25,0 32.25,32.25 0,32.25 0,0" stroke="none" fill="#FFFFFF"></polygon></g></g><g transform="translate(261.0 176.25)"><g clip-path="url(#i3)"><polygon points="0,0 32.25,0 32.25,32.25 0,32.25 0,0" stroke="none" fill="#FFFFFF"></polygon></g></g></g></svg>